HIERARCHY
ROOT Reference
{
  OFFSET 0 0 0
  CHANNELS 6 Xposition Yposition Zposition Zrotation Xrotation Yrotation
  JOINT Hips
  {
    OFFSET 251.394 724.17 483.536
    CHANNELS 3 Zrotation Xrotation Yrotation
    JOINT RightUpLeg
    {
      OFFSET -0.450515 -23.4426 -1.37224
      CHANNELS 3 Zrotation Xrotation Yrotation
      JOINT RightLeg
      {
        OFFSET 112.821 0.0872427 -0.321027
        CHANNELS 3 Zrotation Xrotation Yrotation
        JOINT RightFoot
        {
          OFFSET 105.718 0.000193788 0.0213165
          CHANNELS 3 Zrotation Xrotation Yrotation
          JOINT RightToeBase
          {
            OFFSET 37.638 -0.000116272 0.00224792
            CHANNELS 3 Zrotation Xrotation Yrotation
            JOINT RightToeEnd
            {
              OFFSET 21.2112 0.114605 -0.000138184
              CHANNELS 3 Zrotation Xrotation Yrotation
              End Site
              {
                OFFSET 0 0 0
              }
            }
          }
        }
      }
    }
    JOINT LeftUpLeg
    {
      OFFSET -0.449508 23.4315 -1.37054
      CHANNELS 3 Zrotation Xrotation Yrotation
      JOINT LeftLeg
      {
        OFFSET 112.821 -0.0485242 -0.372458
        CHANNELS 3 Zrotation Xrotation Yrotation
        JOINT LeftFoot
        {
          OFFSET 105.716 0.00496094 -0.0229443
          CHANNELS 3 Zrotation Xrotation Yrotation
          JOINT LeftToeBase
          {
            OFFSET 37.639 0 0.00158905
            CHANNELS 3 Zrotation Xrotation Yrotation
            JOINT LeftToeEnd
            {
              OFFSET 21.2113 -0.125031 -0.00017438
              CHANNELS 3 Zrotation Xrotation Yrotation
              End Site
              {
                OFFSET 0 0 0
              }
            }
          }
        }
      }
    }
    JOINT Spine
    {
      OFFSET -5.01225 0.000463591 -9.60395
      CHANNELS 3 Zrotation Xrotation Yrotation
      JOINT Spine1
      {
        OFFSET 26.0222 -0.000271301 -0.000155029
        CHANNELS 3 Zrotation Xrotation Yrotation
        JOINT Spine2
        {
          OFFSET 27.173 -0.000155029 -0.000310058
          CHANNELS 3 Zrotation Xrotation Yrotation
          JOINT Spine3
          {
            OFFSET 36.3953 -0.000232544 7.75146e-005
            CHANNELS 3 Zrotation Xrotation Yrotation
            JOINT Neck
            {
              OFFSET 36.4331 0 -3.00261
              CHANNELS 3 Zrotation Xrotation Yrotation
              JOINT Head
              {
                OFFSET 23.0407 -0.000232544 -0.000310058
                CHANNELS 3 Zrotation Xrotation Yrotation
                End Site
                {
                  OFFSET 0 0 0
                }
              }
            }
            JOINT LeftShoulder
            {
              OFFSET 20.1317 6.74168 -12.6061
              CHANNELS 3 Zrotation Xrotation Yrotation
              JOINT LeftArm
              {
                OFFSET 34.2172 -5.81359e-005 7.75146e-005
                CHANNELS 3 Zrotation Xrotation Yrotation
                JOINT LeftForeArm
                {
                  OFFSET 65.4129 -0.0821605 0.0585235
                  CHANNELS 3 Zrotation Xrotation Yrotation
                  JOINT LeftHand
                  {
                    OFFSET 67.3883 0.0359667 0.0112396
                    CHANNELS 3 Zrotation Xrotation Yrotation
                    JOINT LeftHandThumb1
                    {
                      OFFSET 8.78386 2.85353 -6.05362
                      CHANNELS 3 Zrotation Xrotation Yrotation
                      JOINT LeftHandThumb2
                      {
                        OFFSET 8.25498 -0.000116272 -0.000174407
                        CHANNELS 3 Zrotation Xrotation Yrotation
                        JOINT LeftHandThumb3
                        {
                          OFFSET 7.24822 0.000310058 5.81358e-005
                          CHANNELS 3 Zrotation Xrotation Yrotation
                          JOINT LeftHandThumb4
                          {
                            OFFSET 7.0004 -3.87568e-005 -0.000310057
                            CHANNELS 3 Zrotation Xrotation Yrotation
                            End Site
                            {
                              OFFSET 0 0 0
                            }
                          }
                        }
                      }
                    }
                    JOINT LeftHandIndex1
                    {
                      OFFSET 24.0991 -1.01537 -5.40558
                      CHANNELS 3 Zrotation Xrotation Yrotation
                      JOINT LeftHandIndex2
                      {
                        OFFSET 7.26759 -0.000290679 -0.000465086
                        CHANNELS 3 Zrotation Xrotation Yrotation
                        JOINT LeftHandIndex3
                        {
                          OFFSET 7.13628 -1.93787e-005 0.000232543
                          CHANNELS 3 Zrotation Xrotation Yrotation
                          JOINT LeftHandIndex4
                          {
                            OFFSET 5.46699 9.68932e-005 -0.000387571
                            CHANNELS 3 Zrotation Xrotation Yrotation
                            End Site
                            {
                              OFFSET 0 0 0
                            }
                          }
                        }
                      }
                    }
                    JOINT LeftHandMiddle1
                    {
                      OFFSET 24.4604 -2.52837 0.918567
                      CHANNELS 3 Zrotation Xrotation Yrotation
                      JOINT LeftHandMiddle2
                      {
                        OFFSET 7.41627 -5.81359e-005 0.000116271
                        CHANNELS 3 Zrotation Xrotation Yrotation
                        JOINT LeftHandMiddle3
                        {
                          OFFSET 8.76829 3.87573e-005 -7.75142e-005
                          CHANNELS 3 Zrotation Xrotation Yrotation
                          JOINT LeftHandMiddle4
                          {
                            OFFSET 6.07588 -0.00013565 -5.81356e-005
                            CHANNELS 3 Zrotation Xrotation Yrotation
                            End Site
                            {
                              OFFSET 0 0 0
                            }
                          }
                        }
                      }
                    }
                    JOINT LeftHandRing1
                    {
                      OFFSET 22.465 -1.97467 6.3466
                      CHANNELS 3 Zrotation Xrotation Yrotation
                      JOINT LeftHandRing2
                      {
                        OFFSET 7.36666 -0.000232544 0.000387571
                        CHANNELS 3 Zrotation Xrotation Yrotation
                        JOINT LeftHandRing3
                        {
                          OFFSET 8.07624 -0.000465087 -0.000203475
                          CHANNELS 3 Zrotation Xrotation Yrotation
                          JOINT LeftHandRing4
                          {
                            OFFSET 6.04433 0.00013565 3.87571e-005
                            CHANNELS 3 Zrotation Xrotation Yrotation
                            End Site
                            {
                              OFFSET 0 0 0
                            }
                          }
                        }
                      }
                    }
                    JOINT LeftHandPinky1
                    {
                      OFFSET 19.5278 0.352933 10.4295
                      CHANNELS 3 Zrotation Xrotation Yrotation
                      JOINT LeftHandPinky2
                      {
                        OFFSET 6.16525 5.8136e-005 -0.000251921
                        CHANNELS 3 Zrotation Xrotation Yrotation
                        JOINT LeftHandPinky3
                        {
                          OFFSET 6.14448 -0.000329434 -0.00510625
                          CHANNELS 3 Zrotation Xrotation Yrotation
                          JOINT LeftHandPinky4
                          {
                            OFFSET 4.98555 0.000116272 0.000116271
                            CHANNELS 3 Zrotation Xrotation Yrotation
                            End Site
                            {
                              OFFSET 0 0 0
                            }
                          }
                        }
                      }
                    }
                  }
                }
              }
            }
            JOINT RightShoulder
            {
              OFFSET 20.1309 -6.74152 -12.6063
              CHANNELS 3 Zrotation Xrotation Yrotation
              JOINT RightArm
              {
                OFFSET 34.2171 7.75146e-005 7.75146e-005
                CHANNELS 3 Zrotation Xrotation Yrotation
                JOINT RightForeArm
                {
                  OFFSET 65.4492 0.242543 -0.176501
                  CHANNELS 3 Zrotation Xrotation Yrotation
                  JOINT RightHand
                  {
                    OFFSET 67.3888 -0.0867388 0.0597442
                    CHANNELS 3 Zrotation Xrotation Yrotation
                    JOINT RightHandThumb1
                    {
                      OFFSET 8.78307 -2.85357 -6.05302
                      CHANNELS 3 Zrotation Xrotation Yrotation
                      JOINT RightHandThumb2
                      {
                        OFFSET 8.25493 -7.75145e-005 0
                        CHANNELS 3 Zrotation Xrotation Yrotation
                        JOINT RightHandThumb3
                        {
                          OFFSET 7.24797 -0.000174408 0.000155029
                          CHANNELS 3 Zrotation Xrotation Yrotation
                          JOINT RightHandThumb4
                          {
                            OFFSET 7.00062 0 0
                            CHANNELS 3 Zrotation Xrotation Yrotation
                            End Site
                            {
                              OFFSET 0 0 0
                            }
                          }
                        }
                      }
                    }
                    JOINT RightHandIndex1
                    {
                      OFFSET 24.0991 1.01525 -5.40578
                      CHANNELS 3 Zrotation Xrotation Yrotation
                      JOINT RightHandIndex2
                      {
                        OFFSET 7.26773 7.75144e-005 0.000232543
                        CHANNELS 3 Zrotation Xrotation Yrotation
                        JOINT RightHandIndex3
                        {
                          OFFSET 7.13572 -0.000310058 3.87571e-005
                          CHANNELS 3 Zrotation Xrotation Yrotation
                          JOINT RightHandIndex4
                          {
                            OFFSET 5.46717 0 3.87572e-005
                            CHANNELS 3 Zrotation Xrotation Yrotation
                            End Site
                            {
                              OFFSET 0 0 0
                            }
                          }
                        }
                      }
                    }
                    JOINT RightHandMiddle1
                    {
                      OFFSET 24.4603 2.52899 0.918547
                      CHANNELS 3 Zrotation Xrotation Yrotation
                      JOINT RightHandMiddle2
                      {
                        OFFSET 7.41641 -0.000116272 -0.000116272
                        CHANNELS 3 Zrotation Xrotation Yrotation
                        JOINT RightHandMiddle3
                        {
                          OFFSET 8.76765 -3.87577e-005 0.000232543
                          CHANNELS 3 Zrotation Xrotation Yrotation
                          JOINT RightHandMiddle4
                          {
                            OFFSET 6.07609 -0.000193787 -0.000116271
                            CHANNELS 3 Zrotation Xrotation Yrotation
                            End Site
                            {
                              OFFSET 0 0 0
                            }
                          }
                        }
                      }
                    }
                    JOINT RightHandRing1
                    {
                      OFFSET 22.465 1.97571 6.34696
                      CHANNELS 3 Zrotation Xrotation Yrotation
                      JOINT RightHandRing2
                      {
                        OFFSET 7.36684 0.000193786 0.000155029
                        CHANNELS 3 Zrotation Xrotation Yrotation
                        JOINT RightHandRing3
                        {
                          OFFSET 8.07614 -0.000271301 0
                          CHANNELS 3 Zrotation Xrotation Yrotation
                          JOINT RightHandRing4
                          {
                            OFFSET 6.04468 0.000232543 0
                            CHANNELS 3 Zrotation Xrotation Yrotation
                            End Site
                            {
                              OFFSET 0 0 0
                            }
                          }
                        }
                      }
                    }
                    JOINT RightHandPinky1
                    {
                      OFFSET 19.5277 -0.352346 10.4296
                      CHANNELS 3 Zrotation Xrotation Yrotation
                      JOINT RightHandPinky2
                      {
                        OFFSET 6.16508 0 0.000232543
                        CHANNELS 3 Zrotation Xrotation Yrotation
                        JOINT RightHandPinky3
                        {
                          OFFSET 6.14396 -0.000155048 -0.0048834
                          CHANNELS 3 Zrotation Xrotation Yrotation
                          JOINT RightHandPinky4
                          {
                            OFFSET 4.98577 -7.75146e-005 -7.75143e-005
                            CHANNELS 3 Zrotation Xrotation Yrotation
                            End Site
                            {
                              OFFSET 0 0 0
                            }
                          }
                        }
                      }
                    }
                  }
                }
              }
            }
          }
        }
      }
    }
  }
}
MOTION
Frames:	4
Frame Time:	0.0333333
0 0 0 -90 -7.01671e-015 -180 1.36443 -7.3435 -106.052 -176.42 14.6572 -26.7248 0.706637 -0.0622385 -95.2457 9.96763 14.7786 41.0907 -0.561762 0.164563 52.024 -0.0107501 -0.00267072 -86.4962 -169.894 10.9972 -24.9191 -9.64923 -4.318 -98.1074 7.63365 -7.08342 27.0151 0.582253 -0.122731 56.819 -5.87632e-005 -4.77631e-005 -86.4974 1.92916 0.776482 123.07 -2.27062 -3.64167 -6.00793 -3.12827 -3.56829 -8.29308 -2.66324 0.313411 7.03348 0.894957 -28.2324 23.4214 -11.6351 -25.747 47.388 95.6733 20.1566 -25.9885 42.8506 -4.31277 -23.7448 2.56128 2.04559 118.312 -10.0797 29.0955 25.8149 -149.04 0.685071 155.334 0.000387818 -0.000202532 25.8347 0.000273393 -1.53532e-005 28.0495 0.000344923 -0.00125421 -0.000118884 158.267 73.5886 -130.557 -0.000396743 -0.000384587 9.78649 0.00112827 -0.000756535 12.2123 -0.00056029 -0.000520695 -0.000506291 151.999 82.102 -125.63 0.000177018 -0.000372288 32.1353 0.00136496 -0.000477217 33.8636 -0.000513704 -0.000278955 9.41273e-005 85.2509 84.6 -49.9263 0.000394891 -0.000954368 33.2752 0.00200868 -8.89522e-005 36.1337 -0.000611298 -0.000652291 0.00068387 87.4395 72.3983 -48.4327 0.00144376 -0.00117989 34.8968 0.000699959 0.00015673 39.2137 -3.15782e-005 -1.68627e-005 -0.00041835 -84.841 -23.714 -17.137 -38.5057 2.44559 17.2537 -2.55091 -6.93266 117.631 38.9936 -55.3554 20.2104 147.556 -21.6904 160.205 -0.000115113 0.000196564 25.8347 7.90924e-005 0.000304548 28.0495 -7.62307e-005 -9.15528e-005 -179.96 177.937 -81.2517 -136.128 -0.000109851 -0.000577532 27.5066 0.000173207 0.000311041 29.9325 -0.000106843 -4.57764e-005 179.96 147.125 -85.3812 -168.508 -9.86695e-005 0.000217022 43.4913 -0.000276163 0.000507341 18.9685 -3.06019e-005 -0.00012207 179.96 -85.2603 -84.5995 -32.2154 9.53937e-005 -0.000222483 44.6311 -0.000583546 0.00104173 21.2391 -1.52904e-005 -4.57764e-005 179.96 -87.4407 -72.3985 -30.7138 -0.000273421 0.000807475 46.2528 -0.000262291 0.000285249 24.3185 -1.5322e-005 -9.15528e-005 179.96 
0 0 0 -90 -7.01671e-015 -180 1.11271 -7.57707 -105.715 -176.743 14.9742 -26.3214 0.770942 -0.0687671 -95.0705 9.82961 14.8378 41.0933 -0.561762 0.16456 52.024 -0.0107501 -0.00267897 -86.4962 -170.25 11.4092 -24.6646 -9.35964 -4.36667 -98.1065 7.25208 -6.90024 27.0053 0.582254 -0.122731 56.819 -5.88951e-005 -7.46786e-005 -86.4974 1.86624 0.854227 122.824 -2.51324 -3.62793 -5.997 -3.30185 -3.58996 -8.28387 -2.7552 0.252269 7.04166 0.831108 -28.1607 23.6949 -11.6333 -25.562 47.9206 95.8173 20.1139 -25.9903 42.9292 -4.14071 -23.9431 2.51331 2.01902 117.401 -10.7256 28.3714 26.7979 -149.04 0.685098 155.334 0.000386711 -8.37956e-005 25.8347 0.000272986 -1.93998e-005 28.0495 0.000344923 -0.00127848 -0.000118884 158.267 73.5886 -130.557 -0.000396806 -0.000403717 9.78649 0.00112821 -0.000778884 12.2123 -0.000560291 -0.000540164 -0.000506291 151.999 82.1019 -125.63 0.000176931 -0.000372521 32.1353 0.00136477 -0.000477307 33.8637 -0.000513704 -0.000278955 9.41274e-005 85.2508 84.6 -49.9261 0.000394469 -0.000839947 33.2752 0.00200851 -0.000173523 36.1337 -0.000611297 -0.000652291 0.00068387 87.4399 72.3983 -48.4331 0.00144274 -0.0010578 34.8968 0.000699484 0.000156465 39.2137 -3.15898e-005 -1.68627e-005 -0.00041835 -84.841 -23.714 -17.137 -37.7497 3.0639 17.6273 -2.62589 -7.56407 118.44 38.416 -55.9904 18.9656 147.556 -21.6904 160.205 -0.000119426 0.000195354 25.8347 7.9439e-005 0.000304719 28.0495 -7.62307e-005 -9.15528e-005 -179.96 177.937 -81.2517 -136.128 -0.000110136 -0.000589288 27.5066 0.000173524 0.000308819 29.9325 -0.000106843 -4.57764e-005 179.96 147.125 -85.3812 -168.508 -9.64355e-005 0.000215714 43.4913 -0.000277093 0.000504611 18.9685 -4.57553e-005 3.05176e-005 179.96 -85.2607 -84.5995 -32.2158 9.54072e-005 -0.000222476 44.6311 -0.000583745 0.00103825 21.2391 -1.52904e-005 -4.57764e-005 179.96 -87.4408 -72.3985 -30.7138 -0.00027299 0.000803098 46.2528 -0.00026298 0.000263903 24.3185 -1.53747e-005 -0.000167847 179.96 
0 0 0 -90 -7.01671e-015 -180 0.57302 -8.14728 -105.154 -177.426 15.3536 -25.5731 0.864541 -0.0838019 -94.9922 9.76055 14.9057 41.0813 -0.561761 0.16456 52.024 -0.0107503 -0.0026961 -86.4962 -170.911 11.7875 -24.1455 -9.19111 -4.39861 -98.1076 7.08114 -6.79479 26.9928 0.582254 -0.122731 56.819 -5.92212e-005 -0.000127335 -86.4974 1.69447 1.07694 122.635 -2.68748 -3.59427 -6.11859 -3.45323 -3.57113 -8.39891 -2.86998 0.253088 6.93447 0.861089 -27.9915 24.0007 -11.4822 -25.3833 48.3132 95.9665 20.0704 -25.9898 42.9553 -4.04475 -24.5394 2.46049 2.00707 116.355 -11.4733 27.4667 28.1583 -149.04 0.685153 155.334 0.000386406 -8.33684e-005 25.8347 0.000272633 -2.34754e-005 28.0495 0.000344923 -0.00132738 -0.000118884 158.266 73.5887 -130.557 -0.000396863 -0.000441095 9.78649 0.00112816 -0.000824217 12.2123 -0.00056029 -0.000578726 -0.000506291 151.999 82.1019 -125.63 0.000177 -0.000372677 32.1353 0.00136465 -0.000477345 33.8637 -0.000513704 -0.000278955 9.41274e-005 85.2504 84.6 -49.9257 0.000394311 -0.00084012 33.2752 0.00200802 -2.78358e-005 36.1337 -0.000611298 -0.000652291 0.00068387 87.4398 72.3983 -48.4331 0.00144247 -0.00105795 34.8968 0.000699207 0.00015637 39.2137 -3.15782e-005 -1.68627e-005 -0.00041835 -84.841 -23.714 -17.1371 -36.808 3.61749 17.9759 -2.73159 -8.35712 119.481 37.8548 -56.7432 17.5533 147.556 -21.6904 160.205 -0.000120637 0.000192632 25.8347 8.00621e-005 0.000305182 28.0495 -7.62307e-005 -9.15527e-005 -179.96 177.937 -81.2517 -136.128 -0.000110423 -0.000612558 27.5066 0.00017413 0.000305776 29.9325 -0.000106864 -7.6294e-005 179.96 147.125 -85.3811 -168.508 -9.68841e-005 0.000208111 43.4913 -0.000276483 0.000501412 18.9685 -4.57553e-005 3.05176e-005 179.96 -85.2614 -84.5995 -32.2166 9.24771e-005 -0.000225338 44.6311 -0.000584474 0.00103555 21.239 -1.52904e-005 -4.57764e-005 179.96 -87.4409 -72.3985 -30.714 -0.000272604 0.000794187 46.2528 -0.000263453 0.000224078 24.3185 -1.52693e-005 -1.52588e-005 179.96 
0 0 0 -90 -7.01671e-015 -180 -0.162373 -8.96605 -104.443 -178.397 15.7778 -24.5932 0.973896 -0.104238 -94.9741 9.74573 14.9758 41.0583 -0.561761 0.16456 52.024 -0.0107506 -0.00273036 -86.4962 -171.79 12.1395 -23.446 -9.11541 -4.41747 -98.1095 7.07206 -6.74854 26.9804 0.582255 -0.122731 56.819 -5.96777e-005 -0.000233062 -86.4974 1.44958 1.40018 122.495 -2.80372 -3.54642 -6.33663 -3.58176 -3.52082 -8.60453 -2.9971 0.30215 6.74287 0.952938 -27.7504 24.3198 -11.2213 -25.2125 48.6006 96.1201 20.0261 -25.9872 42.922 -4.01109 -25.4068 2.40541 2.01558 115.221 -12.2608 26.4307 29.7468 -149.04 0.685057 155.334 0.000386752 -8.49349e-005 25.8347 0.000273789 -2.97187e-005 28.0495 0.000344923 -0.00142364 -0.000118883 158.266 73.5887 -130.557 -0.000396955 -0.000516668 9.78648 0.00112813 -0.000915047 12.2123 -0.00056029 -0.00065585 -0.000506292 151.999 82.1019 -125.63 0.000173887 -0.000374833 32.1353 0.00136461 -0.000480763 33.8636 -0.000513704 -0.000278955 9.41273e-005 85.2497 84.6 -49.9251 0.000393277 -0.000844285 33.2752 0.0020079 -5.17281e-005 36.1337 -0.000611297 -0.000652291 0.00068387 87.4398 72.3983 -48.4331 0.00144277 -0.00105771 34.8968 0.000699307 0.000156584 39.2137 -3.15898e-005 -1.92775e-005 -0.00041835 -84.841 -23.714 -17.1371 -35.7466 4.1081 18.3221 -2.85759 -9.25139 120.665 37.2964 -57.5698 16.0191 147.556 -21.6904 160.205 -0.000115954 0.00019305 25.8347 7.88119e-005 0.000304756 28.0495 -7.62307e-005 -9.15527e-005 -179.96 177.937 -81.2517 -136.128 -0.00010988 -0.000658194 27.5066 0.000173594 0.000300097 29.9325 -0.000106885 -0.000106812 179.96 147.126 -85.3811 -168.507 -9.77535e-005 0.000197163 43.4913 -0.000276001 0.000496185 18.9685 -4.57553e-005 3.05176e-005 179.96 -85.2599 -84.5995 -32.215 9.62815e-005 -0.000221527 44.6311 -0.000583372 0.00103057 21.239 -1.52904e-005 -4.57764e-005 179.96 -87.4411 -72.3985 -30.7142 -0.000273225 0.000774893 46.2528 -0.000261997 0.000145356 24.3185 -1.52693e-005 -1.52588e-005 179.96 
